# xmcd
#
# Track frame offsets:
#	150
#	15867
#	46347
#
# Disc length: 663 seconds
#
# Revision: 0
# Processed by: cddbd v1.4PL0 Copyright (c) Steve Scherf et al.
# Submitted via: dBpowerAMP V4.0
#
DISCID=14029503
DTITLE=Brian McComas - Night Disappear With You Single
DYEAR=1900
DGENRE=Country
TTITLE0=Night Disappear With You
TTITLE1=I Could Never Love You Enough
TTITLE2=DATA
EXTD=Terra Greenland, Caldwell, Idaho
EXTT0=
EXTT1=
EXTT2=
PLAYORDER=
